<svg xmlns="http://www.w3.org/2000/svg" viewBox="0 0 800 500">
  <defs>
    <linearGradient id="bg" x1="0%" y1="0%" x2="100%" y2="100%">
      <stop offset="0%" style="stop-color:#1e293b"/>
      <stop offset="100%" style="stop-color:#0f172a"/>
    </linearGradient>
    <linearGradient id="blue" x1="0%" y1="0%" x2="100%" y2="0%">
      <stop offset="0%" style="stop-color:#3b82f6"/>
      <stop offset="100%" style="stop-color:#6366f1"/>
    </linearGradient>
  </defs>
  <rect width="800" height="500" fill="url(#bg)"/>
  <!-- Header -->
  <rect x="0" y="0" width="800" height="55" fill="#0f172a"/>
  <text x="30" y="34" font-family="sans-serif" font-size="18" fill="#3b82f6" font-weight="bold">🦐 Camaron Prop</text>
  <text x="30" y="50" font-family="sans-serif" font-size="11" fill="#64748b">Portal Inmobiliario</text>
  <!-- Filtros -->
  <rect x="0" y="55" width="800" height="70" fill="#1e293b"/>
  <text x="30" y="78" font-family="sans-serif" font-size="11" fill="#94a3b8">Localidad</text>
  <rect x="30" y="83" width="180" height="28" rx="5" fill="#0f172a" stroke="#334155" stroke-width="1"/>
  <text x="45" y="101" font-family="sans-serif" font-size="12" fill="#f1f5f9">Valencia</text>
  <text x="240" y="78" font-family="sans-serif" font-size="11" fill="#94a3b8">Precio mínimo</text>
  <rect x="240" y="83" width="130" height="28" rx="5" fill="#0f172a" stroke="#334155" stroke-width="1"/>
  <text x="255" y="101" font-family="sans-serif" font-size="12" fill="#f1f5f9">100.000 €</text>
  <text x="390" y="78" font-family="sans-serif" font-size="11" fill="#94a3b8">Precio máximo</text>
  <rect x="390" y="83" width="130" height="28" rx="5" fill="#0f172a" stroke="#334155" stroke-width="1"/>
  <text x="405" y="101" font-family="sans-serif" font-size="12" fill="#f1f5f9">400.000 €</text>
  <rect x="560" y="83" width="100" height="28" rx="5" fill="url(#blue)"/>
  <text x="610" y="101" font-family="sans-serif" font-size="12" fill="white" text-anchor="middle">🔍 Buscar</text>
  <!-- Tarjetas de propiedades -->
  <!-- Casa 1 -->
  <rect x="20" y="145" width="230" height="200" rx="10" fill="#1e293b" stroke="#334155" stroke-width="1"/>
  <rect x="20" y="145" width="230" height="100" rx="10" fill="#334155"/>
  <rect x="20" y="215" width="230" height="30" fill="#334155"/>
  <text x="135" y="200" font-family="sans-serif" font-size="32" text-anchor="middle">🏠</text>
  <text x="35" y="265" font-family="sans-serif" font-size="13" fill="#3b82f6" font-weight="bold">Valencia - Ruzafa</text>
  <text x="35" y="282" font-family="sans-serif" font-size="12" fill="#f1f5f9">185.000 €</text>
  <text x="35" y="298" font-family="sans-serif" font-size="11" fill="#94a3b8">85 m² · 3 hab · 2 baños</text>
  <text x="35" y="313" font-family="sans-serif" font-size="11" fill="#94a3b8">Piso · Buen estado</text>
  <rect x="35" y="320" width="80" height="18" rx="4" fill="rgba(59,130,246,0.2)" stroke="#3b82f6" stroke-width="0.5"/>
  <text x="75" y="332" font-family="sans-serif" font-size="10" fill="#3b82f6" text-anchor="middle">Planta 4</text>
  <!-- Casa 2 -->
  <rect x="285" y="145" width="230" height="200" rx="10" fill="#1e293b" stroke="#334155" stroke-width="1"/>
  <rect x="285" y="145" width="230" height="100" rx="10" fill="#334155"/>
  <rect x="285" y="215" width="230" height="30" fill="#334155"/>
  <text x="400" y="200" font-family="sans-serif" font-size="32" text-anchor="middle">🏡</text>
  <text x="300" y="265" font-family="sans-serif" font-size="13" fill="#3b82f6" font-weight="bold">Alboraya · Playa</text>
  <text x="300" y="282" font-family="sans-serif" font-size="12" fill="#f1f5f9">250.000 €</text>
  <text x="300" y="298" font-family="sans-serif" font-size="11" fill="#94a3b8">110 m² · 4 hab · 2 baños</text>
  <text x="300" y="313" font-family="sans-serif" font-size="11" fill="#94a3b8">Chalet · Reformado</text>
  <rect x="300" y="320" width="80" height="18" rx="4" fill="rgba(59,130,246,0.2)" stroke="#3b82f6" stroke-width="0.5"/>
  <text x="340" y="332" font-family="sans-serif" font-size="10" fill="#3b82f6" text-anchor="middle">Planta baja</text>
  <!-- Casa 3 -->
  <rect x="550" y="145" width="230" height="200" rx="10" fill="#1e293b" stroke="#334155" stroke-width="1"/>
  <rect x="550" y="145" width="230" height="100" rx="10" fill="#334155"/>
  <rect x="550" y="215" width="230" height="30" fill="#334155"/>
  <text x="665" y="200" font-family="sans-serif" font-size="32" text-anchor="middle">🏢</text>
  <text x="565" y="265" font-family="sans-serif" font-size="13" fill="#3b82f6" font-weight="bold">Torrent · Centro</text>
  <text x="565" y="282" font-family="sans-serif" font-size="12" fill="#f1f5f9">155.000 €</text>
  <text x="565" y="298" font-family="sans-serif" font-size="11" fill="#94a3b8">70 m² · 2 hab · 1 baño</text>
  <text x="565" y="313" font-family="sans-serif" font-size="11" fill="#94a3b8">Apartamento · A estrenar</text>
  <rect x="565" y="320" width="80" height="18" rx="4" fill="rgba(59,130,246,0.2)" stroke="#3b82f6" stroke-width="0.5"/>
  <text x="605" y="332" font-family="sans-serif" font-size="10" fill="#3b82f6" text-anchor="middle">Planta 7</text>
  <!-- Footer -->
  <rect x="0" y="390" width="800" height="110" fill="#0f172a"/>
  <text x="30" y="420" font-family="sans-serif" font-size="12" fill="#64748b">Localidades: Valencia · Alboraya · Torrent · Gandía · Sagunto · Paterna · Burjassot · Xàtiva · Cullera</text>
  <text x="400" y="455" font-family="sans-serif" font-size="13" fill="#64748b" text-anchor="middle">PHP + MySQL · Panel de Admin · Filtros Dinámicos</text>
  <text x="400" y="478" font-family="sans-serif" font-size="11" fill="#475569" text-anchor="middle">Camaron Prop · Valentín De Gennaro</text>
</svg>

